<svg id="Layer_1" data-name="Layer 1" xmlns="http://www.w3.org/2000/svg" viewBox="0 0 307.81 198.89"><defs><style>.cls-1{fill:#fff;}</style></defs><title>up_icon</title><path class="cls-1" d="M43.49,206.42,9.87,172.78a10.67,10.67,0,0,1,0-15L148.33,17.33A16.68,16.68,0,0,1,172,17.25L208.73,54,58.42,206.37A10.52,10.52,0,0,1,43.49,206.42Z" transform="translate(-6.75 -10.61)"/><path class="cls-1" d="M311.48,171.78l-33.4,33.86a10.52,10.52,0,0,1-14.93,0L111.85,54.32l39.44-40A12.51,12.51,0,0,1,169,14.28l142.4,142.47A10.67,10.67,0,0,1,311.48,171.78Z" transform="translate(-6.75 -10.61)"/></svg>